<svg viewBox="0 0 67.65 60.85" xmlns="http://www.w3.org/2000/svg"><path d="m49.95 32.37a29.58 29.58 0 0 1 12.75-10.28c-.91-1.92-1.76-3.87-2.49-5.87-1.78-4.93-2.83-10.1-4.89-14.93a1.51 1.51 0 0 0 -.63-.84.84.84 0 0 0 -1 .36 108.2 108.2 0 0 1 -6.69 12.3 11.53 11.53 0 0 1 -3.21 3.7 9.72 9.72 0 0 1 -3 1.19c-7.13 1.76-14.57-.33-21.54-2.61q-2.5-6.45-5.25-12.77a1.51 1.51 0 0 0 -.53-.74 1.07 1.07 0 0 0 -1.16.12 3 3 0 0 0 -.76.88c-3.89 5.91-2.45 14-4.89 20.65a16.64 16.64 0 0 1 -.8 1.79c.36.32.71.65 1.06 1a26.78 26.78 0 0 1 3.28 2.18 27.06 27.06 0 0 1 7 5 27.25 27.25 0 0 1 4.72 3.72 27.93 27.93 0 0 1 7.25 7.29 26.36 26.36 0 0 1 8 2.86 28.91 28.91 0 0 1 10-10.83 27.64 27.64 0 0 1 2.78-4.17z" fill="#fc2200"/><path d="m67.65 31.63a5.64 5.64 0 0 1 -1.16 2.78 61.28 61.28 0 0 1 -3.92 5.24 20.6 20.6 0 0 0 -1.57 2.17 56.24 56.24 0 0 1 -9.73 13.18 12.89 12.89 0 0 1 -4.42 2.78 21.36 21.36 0 0 1 -3.06.84 59.42 59.42 0 0 1 -18 1c-2.64-.25-4.86-2-6.87-3.66-3.08-2.6-6.25-5.14-9.07-8s-5.3-6.17-7.85-9.31a7.08 7.08 0 0 1 -1.6-2.65c-.52-2 .76-4 2-5.7s2.38-3.37 3.55-5c1.62 1 3.39 1.78 5 2.76a46.5 46.5 0 0 1 6.24 4.69l11.88 10a9.35 9.35 0 0 0 4.14 2.4c2.79.51 5.36-1.5 7.33-3.49 5.15-5.18 9.44-11.19 15-15.91a17.9 17.9 0 0 1 6.63-3.75.47.47 0 0 1 .32 0 .46.46 0 0 1 .18.18 54.33 54.33 0 0 1 4.27 8c.18.41.7 1 .71 1.45z" fill="#fcf2ee"/><path d="m35.78 54.74.08.05.22.13a2.34 2.34 0 0 0 .83.27 4.28 4.28 0 0 0 .58 0h.67a2.42 2.42 0 0 0 .63-.11 2 2 0 0 0 .56-.33 3.12 3.12 0 0 0 .48-.48v-.06l.05-.08.12-.13a3 3 0 0 0 .16-.28 2.37 2.37 0 0 0 .19-.58 2 2 0 0 0 0-.55 1.9 1.9 0 0 0 -.42-1l-.06-.07h.08a1.35 1.35 0 0 1 .22.15 1.74 1.74 0 0 1 .52.82 2.22 2.22 0 0 1 -.06 1.41 2.68 2.68 0 0 1 -.16.36l-.1.18-.05.08-.06.09a3.18 3.18 0 0 1 -.57.6 2.3 2.3 0 0 1 -.75.41 2.5 2.5 0 0 1 -.81.09c-.25 0-.47 0-.7 0a3 3 0 0 1 -.64-.13 2 2 0 0 1 -.5-.24 1.88 1.88 0 0 1 -.29-.34 1.69 1.69 0 0 1 -.17-.2z"/><path d="m49 43.52a1.58 1.58 0 0 0 .14.44 1.66 1.66 0 0 0 .76.66 3.78 3.78 0 0 0 3.18.07 2 2 0 0 0 .71-.49 2.36 2.36 0 0 0 .47-1.2 2.59 2.59 0 0 0 -.26-1.85 2.83 2.83 0 0 0 -2.26-.9h-1.07a1.09 1.09 0 0 0 -.41 0 .94.94 0 0 0 -.31.23 3.44 3.44 0 0 0 -.95 3.04z" fill="#f28069"/><path d="m18.73 43.67a2.14 2.14 0 0 0 -.88-2 3 3 0 0 0 -2.24-.48 4.31 4.31 0 0 0 -2.07 1 1.94 1.94 0 0 0 -.3.31 1.4 1.4 0 0 0 -.24 1.13 3.37 3.37 0 0 0 1.28 1.73 2.88 2.88 0 0 0 1.74.85 2.62 2.62 0 0 0 1.85-1.06 3.11 3.11 0 0 0 .86-1.48z" fill="#f28069"/><path d="m48.66 36.35v-.05a1.24 1.24 0 0 1 0-.15 1.65 1.65 0 0 1 .07-.23 2 2 0 0 1 .14-.29 2.09 2.09 0 0 1 .54-.62 1.94 1.94 0 0 1 .41-.25 1.9 1.9 0 0 1 .49-.13h.38.14a1.71 1.71 0 0 1 .47.17 1.64 1.64 0 0 1 .62.58 1.32 1.32 0 0 1 .19.55.8.8 0 0 1 0 .16v.06l-.11-.15a1.84 1.84 0 0 0 -.35-.36 1.92 1.92 0 0 0 -.57-.32 1.87 1.87 0 0 0 -.34-.08h-.35a2.43 2.43 0 0 0 -1.25.61 4.82 4.82 0 0 0 -.38.36z"/><path d="m14.63 36.9v-.05a.52.52 0 0 1 0-.15 1 1 0 0 1 .25-.48 1.47 1.47 0 0 1 .28-.23l.17-.1h.06.08a2.07 2.07 0 0 1 .42-.11 2.36 2.36 0 0 1 .44 0 2.49 2.49 0 0 1 .43.06 2.35 2.35 0 0 1 .4.13 2.07 2.07 0 0 1 .62.4 1.8 1.8 0 0 1 .19.22 2 2 0 0 1 .12.19 1.79 1.79 0 0 1 .08.18l-.17-.21-.19-.09-.24-.1-.28-.1-.29-.09h-.17-.17-.35-.31-.33-.16-.15l-.26.1a1.12 1.12 0 0 0 -.35.25l-.08.1z"/><path d="m11.48 5.14c.08-.67.23-1.45.85-1.75a.58.58 0 0 1 .45 0 .7.7 0 0 1 .32.31 3.46 3.46 0 0 1 .53 2.09 1.61 1.61 0 0 0 -2.14-.51" fill="#f7b29e"/><path d="m11.64 16.41a6.63 6.63 0 0 0 2-.26l.66-.15a.42.42 0 0 0 .2-.09.36.36 0 0 0 .09-.22 3.56 3.56 0 0 0 -.51-1.84 9.57 9.57 0 0 1 -.68-2.19 2.77 2.77 0 0 0 -.7-1.75l-.75 3.78a11.11 11.11 0 0 0 -.31 2.72z"/><path d="m54.07 1.78s0 0 0-.05-.06 0-.08.06a6.25 6.25 0 0 0 -.74 2.53 6.26 6.26 0 0 1 2 .11 10.68 10.68 0 0 0 -1-2.74" fill="#f7b29e"/><path d="m56 15.54a.18.18 0 0 0 .11 0 .17.17 0 0 0 0-.13 6.74 6.74 0 0 0 -.38-1.76l-.47-1.51a21.65 21.65 0 0 0 -.8-2.27c0-.07-.07-.15-.15-.16s-.17.11-.2.21l-.23.81a14.29 14.29 0 0 0 -.75 4.76.32.32 0 0 0 .1.25.35.35 0 0 0 .22 0q1.26-.05 2.55-.2z"/><path d="m63 21.85a.57.57 0 0 0 -.73-.43 2.07 2.07 0 0 0 -1.57.33c-.43.26-.8.58-1.24.82s-1 .47-1.54.77c-.95.59-1.75 1.37-2.63 2a9 9 0 0 0 -1.91 1.69 24 24 0 0 0 -5.93 6.08c-.91 1.34-1.9 2.61-2.9 3.86-.25.21-.54.37-.77.58l-.13.15h-.06c-1.11 1.14-2.3 2.2-3.47 3.28-.57.52-1.14 1-1.69 1.59a11.31 11.31 0 0 1 -2 1.84c-1.7 1-4.72.23-6.12-1.05-1.16-1.06-1.86-2.51-3.22-3.21-1-.94-2-1.84-3-2.73-.74-.67-1.5-1.32-2.24-2a29.91 29.91 0 0 0 -4.09-2.79 11.24 11.24 0 0 0 -3.14-2.37c-.34-.29-.69-.57-1-.87a10.52 10.52 0 0 0 -2-1.54 15.65 15.65 0 0 1 -2.26-1.32c-1-.8-1.79-1.72-3.15-1.86-.51-.08-.88.65-.35.92a19 19 0 0 1 2.79 2.05c.95.73 2.07 1.12 3 1.82 1.63 1.19 2.89 2.79 4.82 3.49l.65.42a.51.51 0 0 0 .34.21c.22.13.42.28.64.41a23.84 23.84 0 0 1 3.62 2.65.48.48 0 0 0 .13.16l.69.56c.58.52 1.18 1 1.75 1.58a.47.47 0 0 0 0 .08c1.39 1.79 2.94 3.46 4.22 5.33.83 1.22 1.44 2.57 2.23 3.81a9.14 9.14 0 0 0 2.11 3.76 1.93 1.93 0 0 0 1.09.47c1.66.62 2.46-2.45 3-3.54a25 25 0 0 1 2.92-4.77c.24-.27.48-.54.73-.8a5.31 5.31 0 0 0 .53-.64.48.48 0 0 0 .17-.14c1.28-1.6 2.63-3.15 3.92-4.74a.54.54 0 0 0 .17-.08 11.42 11.42 0 0 0 2.44-2.6c.77-1.13 1.64-2.17 2.52-3.22a24.58 24.58 0 0 1 2.5-2.85 11.66 11.66 0 0 0 2.06-1.92 24.47 24.47 0 0 1 4.34-3.29 10.51 10.51 0 0 1 2.53-1.26c.43-.11 1 0 1.23-.5a.47.47 0 0 0 0-.19z"/><path d="m16.91 37.37a1.38 1.38 0 0 0 -1.44.06h-.23l-.07.07a1.26 1.26 0 0 0 -.21.28.49.49 0 0 0 -.2.82s0 0 0 0a1.39 1.39 0 0 0 .63 1 1.36 1.36 0 0 0 .72.2 1.56 1.56 0 0 0 .51-.09 1.34 1.34 0 0 0 .28-2.45zm-.32.52a.58.58 0 0 0 -.12.2c-.12.34-.53.15-.8 0a.75.75 0 0 1 .92-.2z"/><path d="m51.46 37a1.57 1.57 0 0 0 -1.76-.32v-.08a.81.81 0 0 0 -.63.39 1.12 1.12 0 0 0 -.14.39l-.06.06a.52.52 0 0 0 .14.66 1.59 1.59 0 0 0 1.41.92 1.27 1.27 0 0 0 1.25-1 1.15 1.15 0 0 0 -.21-1.02zm-1.72.21v-.17l.12.24a1.33 1.33 0 0 1 .61-.12 1 1 0 0 1 -.84.12.23.23 0 0 1 .11-.03z"/><path d="m28.77 41.76c-.19-.64-.36-1.3-.51-2h.2c.14.65.31 1.31.5 1.95z"/><path d="m30.32 43.21a13.11 13.11 0 0 1 -.7-2.21h.2a12.91 12.91 0 0 0 .69 2.17z"/><path d="m31.58 44.19a17.51 17.51 0 0 1 -.4-2.29h.2a17.35 17.35 0 0 0 .4 2.27z"/><path d="m33 44.56a10.82 10.82 0 0 1 -.1-2h.2a10.62 10.62 0 0 0 .1 2z"/><path d="m34.53 44.33a6.43 6.43 0 0 1 -.21-1.6h.2a6.23 6.23 0 0 0 .2 1.55z"/><path d="m36.14 43.49h-.2a7.17 7.17 0 0 0 0-1.27h.2a7.37 7.37 0 0 1 0 1.27z"/><path d="m37.06 41.94h1.51v.2h-1.51z" transform="matrix(.05860946 -.99828099 .99828099 .05860946 -6.37 77.33)"/><path d="m39.84 40.3h.2v.6h-.2z"/><path d="m26.44 39.45a2 2 0 0 1 -.34-1h.2a1.81 1.81 0 0 0 .31.86z"/><path d="m40.64 39.18h.86v.2h-.86z" transform="matrix(.26959217 -.96297459 .96297459 .26959217 -7.83 68.24)"/><path d="m27.51 38.26h.2v1.13h-.2z"/><path d="m29.43 40.24a8 8 0 0 1 -.05-1.69h.2a7.84 7.84 0 0 0 0 1.64z"/><path d="m30.78 39.23h.2v1.77h-.2z" transform="matrix(.98705242 -.16039803 .16039803 .98705242 -6.03 5.47)"/><path d="m32.29 41.44a6.23 6.23 0 0 0 -.34-1.72l.19-.07a6.42 6.42 0 0 1 .35 1.77z"/><path d="m33.79 41.89h-.2a8.37 8.37 0 0 0 -.11-1.73h.2a8.57 8.57 0 0 1 .11 1.73z"/><path d="m34.89 41.77a5.92 5.92 0 0 1 -.25-1.77h.2a5.72 5.72 0 0 0 .24 1.71z"/><path d="m36.51 39.62h.2v1.21h-.2z"/><path d="m38.06 39.02h.2v1.29h-.2z"/><path d="m39.15 38.54h.61v.2h-.61z" transform="matrix(.13087226 -.99139924 .99139924 .13087226 -4.02 72.7)"/><path d="m40.85 37.35h.2v.83h-.2z"/><path d="m42.4 37.37h1v.2h-1z" transform="matrix(.17571037 -.98444191 .98444191 .17571037 -1.52 73.12)"/><path d="m24.71 36.95h.2v.82h-.2z" transform="matrix(.93282782 -.36032245 .36032245 .93282782 -11.79 11.45)"/><path d="m25.72 35.9h.2v1.18h-.2z" transform="matrix(.96367708 -.26707019 .26707019 .96367708 -8.81 8.22)"/><path d="m27.35 35.97h.2v1.1h-.2z" transform="matrix(.95857152 -.28485196 .28485196 .95857152 -9.27 9.33)"/><path d="m29.12 37.31a2.74 2.74 0 0 0 -.53-1.06l.16-.13a2.94 2.94 0 0 1 .57 1.14z"/><path d="m30.75 37.59-.19-.06a.91.91 0 0 0 -.33-1l.12-.16a1.12 1.12 0 0 1 .4 1.22z"/><path d="m32.13 38.43h-.2a2 2 0 0 0 -.21-1.22l.18-.1a2.18 2.18 0 0 1 .23 1.32z"/><path d="m33.92 38.08a2.82 2.82 0 0 1 -.17-1.08h.25a2.61 2.61 0 0 0 .16 1z"/><path d="m35.62 38h-.2a2.14 2.14 0 0 0 -.21-1.23l.18-.09a2.35 2.35 0 0 1 .23 1.32z"/><path d="m36.94 37.37h-.2a1.28 1.28 0 0 0 0-.64l.19-.07a1.48 1.48 0 0 1 .01.71z"/><path d="m38.21 36.22h.2v1.13h-.2z"/><path d="m39.92 36.22h.2v.91h-.2z"/><path d="m41.54 36.55-.2-.05a1.9 1.9 0 0 0 0-.79h.2a2.11 2.11 0 0 1 0 .84z"/><path d="m42.94 35.31h.2v.83h-.2z"/><path d="m44.73 36.17h-.2a3.32 3.32 0 0 0 0-1h.2a3.53 3.53 0 0 1 0 1z"/><path d="m23 36.5a1.47 1.47 0 0 1 -.25-1h.2a1.26 1.26 0 0 0 .22.84z"/><path d="m24.2 35.46h.2v.46h-.2z" transform="matrix(.98465584 -.17450752 .17450752 .98465584 -5.86 4.79)"/><path d="m20.17 32.7h.2v1.75h-.2z" transform="matrix(.95029861 -.31133994 .31133994 .95029861 -9.45 7.98)"/><path d="m22.14 34.28a8 8 0 0 0 -.43-1.43l.19-.08a8.19 8.19 0 0 1 .44 1.46z"/><path d="m23.81 34.42a2.62 2.62 0 0 0 -.56-1.42l.16-.13a2.83 2.83 0 0 1 .59 1.53z"/><path d="m25.72 34.83a12.1 12.1 0 0 0 -.8-1.6l.17-.1a12.29 12.29 0 0 1 .81 1.63z"/><path d="m26.93 33.3h.2v1.82h-.2z" transform="matrix(.94568891 -.32507304 .32507304 .94568891 -9.65 10.65)"/><path d="m29.02 33.85h.2v1.2h-.2z" transform="matrix(.96164562 -.27429491 .27429491 .96164562 -8.33 9.31)"/><path d="m30.85 35.12a5.26 5.26 0 0 1 -.29-1.24h.2a5.05 5.05 0 0 0 .24 1.12z"/><path d="m32.19 35h-.19a2 2 0 0 0 -.16-.88l.16-.12a2.15 2.15 0 0 1 .19 1z"/><path d="m34 35a4.7 4.7 0 0 0 -.49-1.28l.18-.1a4.9 4.9 0 0 1 .51 1.33z"/><path d="m36.21 33.78h.2v1.23h-.2z" transform="matrix(.98360296 -.18034748 .18034748 .98360296 -5.61 7.11)"/><path d="m38 34.68a2.91 2.91 0 0 1 -.08-1.5h.2a2.71 2.71 0 0 0 .07 1.4z"/><path d="m39.48 34.8h-.2a2.53 2.53 0 0 0 -.09-1.32l.19-.07a2.73 2.73 0 0 1 .1 1.39z"/><path d="m40.87 34.74-.19-.08a2 2 0 0 0 .05-1.44l.19-.07a2.16 2.16 0 0 1 -.05 1.59z"/><path d="m41.73 34.59-.19-.08a3 3 0 0 0 .26-1.24.12.12 0 0 1 -.09 0 .16.16 0 0 1 0-.19.14.14 0 0 1 .15-.07s.16.05.16.25a3.17 3.17 0 0 1 -.29 1.33z"/><path d="m42.61 33.36h1.44v.2h-1.44z" transform="matrix(.05860946 -.99828099 .99828099 .05860946 7.38 74.75)"/><path d="m44.71 34.23-.18-.09a4 4 0 0 0 .36-1.41h.2a4.21 4.21 0 0 1 -.38 1.5z"/><path d="m45.3 33.25h1.4v.2h-1.4z" transform="matrix(.23242697 -.97261385 .97261385 .23242697 2.88 70.34)"/><path d="m47.19 31.96h.94v.2h-.94z" transform="matrix(.29687492 -.95491637 .95491637 .29687492 2.9 68.06)"/><path d="m18.12 33c-.24-.07-.36-.33-.42-.47l-.7-1.53.19-.08.68 1.57c.07.15.15.32.29.35z"/><path d="m19.56 32.54a5.53 5.53 0 0 1 -.83-1.6l.19-.06a5.33 5.33 0 0 0 .8 1.54z"/><path d="m21.43 32.48a20.52 20.52 0 0 0 -.79-2.05l.19-.08a20.72 20.72 0 0 1 .8 2.07z"/><path d="m23.11 32-.35-1.33a.32.32 0 0 0 -.12-.19l-.08-.19a.23.23 0 0 1 .2 0 .5.5 0 0 1 .22.32l.33 1.39z"/><path d="m24.39 30.46h.2v1.16h-.2z" transform="matrix(.97507196 -.22188888 .22188888 .97507196 -6.28 6.21)"/><path d="m26.59 30.45h.2v1.03h-.2z" transform="matrix(.95847203 -.28518655 .28518655 .95847203 -7.72 8.9)"/><path d="m28.6 30.44h.2v1.43h-.2z" transform="matrix(.96999944 -.24310715 .24310715 .96999944 -6.71 7.92)"/><path d="m30.21 32a4.42 4.42 0 0 1 -.32-1.4h.2a4.22 4.22 0 0 0 .31 1.4z"/><path d="m31.81 31.7h-.2a1.35 1.35 0 0 0 -.1-.92l.18-.09a1.55 1.55 0 0 1 .12 1.01z"/><path d="m33.09 31.66a1.71 1.71 0 0 1 -.09-1.13h.2a1.5 1.5 0 0 0 .12 1z"/><path d="m35 32.07h-.2a6 6 0 0 0 -.08-1.41h.2a6.18 6.18 0 0 1 .08 1.41z"/><path d="m36.87 32h-.2a4 4 0 0 0 -.19-1.32l.19-.06a4.22 4.22 0 0 1 .2 1.38z"/><path d="m38.1 32.09-.19-.09a1.74 1.74 0 0 0 -.08-1.21l.19-.08a1.94 1.94 0 0 1 .08 1.38z"/><path d="m40.26 31.4-.2-.05a1.2 1.2 0 0 0 -.1-.85l.18-.09a1.41 1.41 0 0 1 .12.99z"/><path d="m42.25 30.17h.2v1.51h-.2z"/><path d="m44 31.7h-.2a14.44 14.44 0 0 0 .2-1.61h.2a14.69 14.69 0 0 1 -.2 1.61z"/><path d="m45.48 31.26-.19-.06a3.06 3.06 0 0 0 .13-1.2h.2a3.26 3.26 0 0 1 -.14 1.26z"/><path d="m46.84 31-.18-.09a1.94 1.94 0 0 0 .17-1.07h.2a2.14 2.14 0 0 1 -.19 1.16z"/><path d="m48.4 30.6-.17-.11a1.49 1.49 0 0 0 .23-1h.2a1.7 1.7 0 0 1 -.26 1.11z"/><path d="m50 29.49-.13-.15a.4.4 0 0 0 .11-.42l.19-.07a.6.6 0 0 1 -.17.64z"/><path d="m10.37 6.88h.2v1.13h-.2z"/><path d="m11.38 6.88h.2v1.36h-.2z"/><path d="m12.46 6.96h.2v1.21h-.2z"/><path d="m13.86 7.91a3 3 0 0 1 -.23-1h.2a2.76 2.76 0 0 0 .21.95z"/><path d="m14.75 6.77h.2v.99h-.2z" transform="matrix(.91467772 -.40418396 .40418396 .91467772 -1.67 6.62)"/><path d="m52.12 6.82h-.2a10.53 10.53 0 0 1 .43-1.44l.19.07a10.35 10.35 0 0 0 -.42 1.37z"/><path d="m53.49 5.83h.2v.98h-.2z"/><path d="m54.92 7h-.2a2 2 0 0 0 -.12-1.23l.19-.08a2.22 2.22 0 0 1 .13 1.31z"/><path d="m56 6.78a2.49 2.49 0 0 1 -.21-1h.21a2.29 2.29 0 0 0 .19.95z"/><path d="m23.08 29.71a2.29 2.29 0 0 1 -.38-1.44h.2a2.09 2.09 0 0 0 .35 1.31z"/><path d="m24.49 27.88h.2v1.4h-.2z" transform="matrix(.97872439 -.20517938 .20517938 .97872439 -5.34 5.65)"/><path d="m26.06 27.9h.2v1.46h-.2z" transform="matrix(.98752398 -.15746868 .15746868 .98752398 -4.18 4.48)"/><path d="m28.02 27.52h.2v1.29h-.2z" transform="matrix(.99757621 -.06958236 .06958236 .99757621 -1.89 2.02)"/><path d="m29.22 27.6h.2v1.36h-.2z"/><path d="m31.14 27.52h.2v1.52h-.2z" transform="matrix(.99834182 -.05756403 .05756403 .99834182 -1.58 1.84)"/><path d="m33 29.15a5.38 5.38 0 0 1 -.16-1.55h.2a5.17 5.17 0 0 0 .15 1.5z"/><path d="m35 29h-.2a2 2 0 0 0 -.21-1.16l.18-.09a2.2 2.2 0 0 1 .23 1.25z"/><path d="m36.44 29v-1.28a.21.21 0 0 0 -.06-.14l-.09-.17a.18.18 0 0 1 .19 0 .39.39 0 0 1 .16.32v1.28z"/><path d="m38.12 28.94a2 2 0 0 1 -.12-1.28h.2a1.82 1.82 0 0 0 .1 1.15z"/><path d="m39.1 28.14h1.14v.2h-1.14z" transform="matrix(.07 -1 1 .07 8.56 65.7)"/><path d="m41.82 28.74h-.2a4.26 4.26 0 0 0 0-1.11h.2a4.46 4.46 0 0 1 0 1.11z"/><path d="m42.79 27.83h.2v.68h-.2z"/><path d="m45.04 27.75h.2v.76h-.2z"/><path d="m26.87 27.12a5.34 5.34 0 0 1 -.44-1.71h.2a5.14 5.14 0 0 0 .43 1.59z"/><path d="m28.48 26.65c-.08-.38-.18-.77-.29-1.15l.2-.06c.11.38.21.78.29 1.17z"/><path d="m30.43 26.47h-.2a4.45 4.45 0 0 0 -.15-1.26l.2-.05a4.66 4.66 0 0 1 .15 1.31z"/><path d="m32.52 26.49-.2-.05a2.37 2.37 0 0 0 -.08-1.44l.19-.07a2.58 2.58 0 0 1 .09 1.56z"/><path d="m33.94 25.9a1.62 1.62 0 0 1 -.07-.81h.2a1.42 1.42 0 0 0 .06.71z"/><path d="m36.16 26h-.16a2.62 2.62 0 0 0 -.06-.95h.2a2.82 2.82 0 0 1 .02.95z"/><path d="m37.82 26a1.58 1.58 0 0 1 -.25-1.06h.2a1.4 1.4 0 0 0 .22.92z"/><path d="m39.22 25.1h.2v.91h-.2z"/><path d="m40.55 26-.15-.14a.53.53 0 0 0 .09-.57l.18-.09a.74.74 0 0 1 -.12.8z"/><path d="m42.17 25.18h.2v.68h-.2z"/><path d="m44.02 25.53h.31v.2h-.31z" transform="matrix(.24801363 -.96875654 .96875654 .24801363 8.38 62.07)"/><path d="m27.95 24.4a2.15 2.15 0 0 1 -.11-1.28h.2a1.94 1.94 0 0 0 .1 1.16z"/><path d="m29.69 24.45a1.32 1.32 0 0 1 -.37-1.33l.19.06a1.11 1.11 0 0 0 .31 1.12z"/><path d="m31.22 23.12h.2v1.18h-.2z" transform="matrix(.96497072 -.2623576 .2623576 .96497072 -5.12 9.05)"/><path d="m32.89 23.28h.2v.79h-.2z" transform="matrix(.97397597 -.22665131 .22665131 .97397597 -4.51 8.1)"/><path d="m34.88 24.24a1 1 0 0 1 -.27-1l.19.07a.76.76 0 0 0 .21.82z"/><path d="m36.45 23.72a.81.81 0 0 1 -.28-1.06l.18.1a.61.61 0 0 0 .21.79z"/><path d="m38.11 23.54a.83.83 0 0 1 -.43-.88h.2a.63.63 0 0 0 .32.66z"/><path d="m39.14 22.91h.2v.68h-.2z"/><path d="m41 23.49-.17-.11a.13.13 0 0 0 0-.13.15.15 0 0 0 -.12-.08v-.17a.35.35 0 0 1 .31.18.33.33 0 0 1 -.02.31z"/><path d="m31.37 22.26a.71.71 0 0 1 -.09-.82l.18.1a.51.51 0 0 0 .07.58z"/><path d="m32.86 21.32h.2v.91h-.2z"/><path d="m34.4 22.63a1.2 1.2 0 0 1 -.24-1.09l.2.06a1 1 0 0 0 .2.9z"/><path d="m35.84 22.58a1.65 1.65 0 0 1 -.27-1h.2a1.45 1.45 0 0 0 .24.91z"/><path d="m37.08 22.39h-.2a.69.69 0 0 0 -.17-.54l.15-.14a.89.89 0 0 1 .22.68z"/><path d="m38.16 22.07a.82.82 0 0 1 -.19-.6h.2a.62.62 0 0 0 .14.45z"/><path d="m39.56 21.62a1 1 0 0 1 -.26-.62h.2a.79.79 0 0 0 .2.47z"/><path d="m33.33 19.66h.2v.76h-.2z"/><path d="m34.49 19.66h.2v.83h-.2z"/><path d="m36 20.5h-.2a1.25 1.25 0 0 0 -.21-.77l.17-.11a1.45 1.45 0 0 1 .24.88z"/><path d="m36.76 19.8h.2v.58h-.2z" transform="matrix(.90821623 -.41850123 .41850123 .90821623 -5.02 17.27)"/><path d="m38.23 19.4h.2v1.03h-.2z" transform="matrix(.66118094 -.75022648 .75022648 .66118094 -1.95 35.5)"/></svg>